<svg version="1.2" xmlns="http://www.w3.org/2000/svg" viewBox="0 0 48 52" width="48" height="52">
	<style>
		.s0 { fill: #ab8a62 } 
	</style>
	<path class="s0" d="m44.4 20.43c-10.83-10.27-27.5-10.81-38.94-1.62q-0.96 0.76-1.86 1.62c-0.64 0.61-1.67 0.58-2.28-0.06-0.61-0.65-0.58-1.67 0.06-2.28q1-0.95 2.06-1.8c12.69-10.18 31.17-9.59 43.18 1.8 0.65 0.61 0.67 1.63 0.06 2.28-0.61 0.64-1.63 0.67-2.28 0.06z"/>
	<path class="s0" d="m7.8 25.46c8.95-8.94 23.45-8.94 32.4 0 0.63 0.63 0.63 1.66 0 2.29-0.63 0.63-1.65 0.63-2.28 0-7.69-7.69-20.15-7.69-27.83 0-0.63 0.63-1.66 0.63-2.29 0-0.63-0.63-0.63-1.66 0-2.29z"/>
	<path class="s0" d="m14.26 32.47c5.38-5.38 14.1-5.38 19.49 0 0.63 0.63 0.63 1.65 0 2.28-0.63 0.63-1.66 0.63-2.29 0-4.12-4.12-10.8-4.12-14.92 0-0.63 0.63-1.65 0.63-2.28 0-0.63-0.63-0.63-1.65 0-2.28z"/>
	<path fill-rule="evenodd" class="s0" d="m24 41.88c-1.49 0-2.69-1.2-2.69-2.69 0-1.49 1.2-2.69 2.69-2.69 1.49 0 2.69 1.2 2.69 2.69 0 1.49-1.2 2.69-2.69 2.69z"/>
</svg>